<svg width="50" height="50" viewBox="0 0 50 50" fill="none" xmlns="http://www.w3.org/2000/svg">
<rect width="50" height="50" rx="4" fill="#DBAA2D" fill-opacity="0.3"/>
<mask id="mask0_15_796" style="mask-type:alpha" maskUnits="userSpaceOnUse" x="6" y="6" width="38" height="38">
<rect x="6" y="6" width="38" height="38" fill="#D9D9D9"/>
</mask>
<g mask="url(#mask0_15_796)">
<path d="M20.5667 20.5667L24.0896 14.7479L21.7542 10.8688C21.4375 10.341 20.9823 10.0771 20.3886 10.0771C19.7948 10.0771 19.3396 10.341 19.023 10.8688L15.1438 17.3208L20.5667 20.5667ZM35.8855 31.3333L32.3625 25.475L37.8646 22.3083L40.398 26.5438C40.6882 26.9924 40.8466 27.4938 40.873 28.0479C40.8993 28.6021 40.7806 29.1167 40.5167 29.5917C40.2528 30.1195 39.8636 30.5417 39.349 30.8583C38.8344 31.175 38.2737 31.3333 37.6667 31.3333H35.8855ZM31.3334 42.4167L25 36.0833L31.3334 29.75V32.9167H38.8542L36.5584 37.5083C36.2681 38.0361 35.8723 38.4583 35.3709 38.775C34.8695 39.0917 34.3153 39.25 33.7084 39.25H31.3334V42.4167ZM16.0146 39.25C15.4868 39.25 15.0052 39.1115 14.5698 38.8344C14.1344 38.5573 13.8112 38.1945 13.6 37.7458C13.3889 37.3236 13.29 36.8816 13.3032 36.4198C13.3164 35.958 13.4417 35.5292 13.6792 35.1333L15.025 32.9167H21.8334V39.25H16.0146ZM12.0959 34.7375L9.52296 29.5917C9.28546 29.1167 9.1733 28.6087 9.1865 28.0677C9.19969 27.5267 9.35143 27.0188 9.64171 26.5438L10.275 25.475L7.58337 23.8521L16.2521 21.675L18.4292 30.3833L15.698 28.7208L12.0959 34.7375ZM33.4709 21.2L24.8021 19.0229L27.5334 17.4L22.5855 9.16667H28.1667C28.7209 9.16667 29.2421 9.30521 29.7302 9.5823C30.2184 9.85938 30.6077 10.2354 30.898 10.7104L32.9563 14.1542L35.648 12.4917L33.4709 21.2Z" fill="#DBAA2D"/>
</g>
</svg>
