<svg width="50" height="50" viewBox="0 0 50 50" fill="none" xmlns="http://www.w3.org/2000/svg">
<rect width="50" height="50" rx="4" fill="#2D9CDB" fill-opacity="0.3"/>
<mask id="mask0_15_770" style="mask-type:alpha" maskUnits="userSpaceOnUse" x="6" y="6" width="38" height="38">
<rect x="6" y="6" width="38" height="38" fill="#D9D9D9"/>
</mask>
<g mask="url(#mask0_15_770)">
<path d="M25.4355 36.0833C25.7521 36.0569 26.0226 35.9316 26.2469 35.7073C26.4712 35.483 26.5834 35.2125 26.5834 34.8958C26.5834 34.5264 26.4646 34.2295 26.2271 34.0052C25.9896 33.7809 25.6862 33.6819 25.3167 33.7083C24.2348 33.7875 23.0868 33.4906 21.873 32.8177C20.6591 32.1448 19.8938 30.9243 19.5771 29.1563C19.5243 28.866 19.3858 28.6285 19.1615 28.4438C18.9372 28.259 18.6799 28.1667 18.3896 28.1667C18.0202 28.1667 17.7167 28.3052 17.4792 28.5823C17.2417 28.8594 17.1625 29.1826 17.2417 29.5521C17.6903 31.9535 18.7459 33.6688 20.4084 34.6979C22.0709 35.7271 23.7466 36.1889 25.4355 36.0833ZM25 40.8333C21.3848 40.8333 18.3698 39.5931 15.9552 37.1125C13.5407 34.632 12.3334 31.5445 12.3334 27.85C12.3334 25.2111 13.3823 22.3413 15.4802 19.2406C17.5782 16.1399 20.7514 12.7819 25 9.16667C29.2487 12.7819 32.4219 16.1399 34.5198 19.2406C36.6177 22.3413 37.6667 25.2111 37.6667 27.85C37.6667 31.5445 36.4594 34.632 34.0448 37.1125C31.6302 39.5931 28.6153 40.8333 25 40.8333Z" fill="#2D9CDB"/>
</g>
</svg>
