<svg width="265" height="35" viewBox="0 0 265 35" fill="none" xmlns="http://www.w3.org/2000/svg">
<path d="M19.362 24.984C19.362 27.928 18.2427 30.2587 16.004 31.976C13.7653 33.6933 11.0513 34.552 7.86199 34.552C5.71532 34.552 3.93666 34.0153 2.52599 32.942C1.14599 31.838 0.379324 30.9027 0.22599 30.136C0.563324 29.124 1.28399 27.9893 2.38799 26.732C3.49199 25.4747 4.48866 24.708 5.37799 24.432C6.94199 25.444 8.39866 27.698 9.74799 31.194C11.7413 31.1327 12.738 30.044 12.738 27.928C12.738 26.7627 12.2627 25.3367 11.312 23.65C10.392 21.9327 9.37999 20.338 8.27599 18.866C7.17199 17.3633 6.14466 15.692 5.19399 13.852C4.27399 11.9813 3.81399 10.3253 3.81399 8.884C3.81399 6.55333 4.74932 4.71333 6.61999 3.364C8.52132 2.01467 10.6527 1.34 13.014 1.34C15.3753 1.34 17.2 1.846 18.488 2.858C19.8067 3.87 20.466 5.02 20.466 6.308C20.466 7.596 19.9753 8.91467 18.994 10.264C18.0127 11.6133 17.0313 12.6867 16.05 13.484L14.578 14.68C14.946 15.1707 15.3907 15.7993 15.912 16.566C16.4333 17.3327 17.1387 18.636 18.028 20.476C18.9173 22.316 19.362 23.8187 19.362 24.984ZM15.82 9.896C16.2493 9.49733 16.6327 9.022 16.97 8.47C17.3073 7.88733 17.476 7.28933 17.476 6.676C17.476 6.032 17.108 5.49533 16.372 5.066C15.636 4.63667 14.7467 4.422 13.704 4.422C12.692 4.422 11.8333 4.66733 11.128 5.158C10.4533 5.618 10.116 6.18533 10.116 6.86C10.116 7.504 10.3307 8.27067 10.76 9.16C11.22 10.0187 11.6647 10.7393 12.094 11.322L12.784 12.196C13.0907 12.0427 13.566 11.7207 14.21 11.23C14.8847 10.7393 15.4213 10.2947 15.82 9.896ZM31.685 16.474C31.685 17.762 31.271 19.9853 30.443 23.144C29.615 26.272 29.201 28.3267 29.201 29.308C29.201 30.2587 29.339 30.734 29.615 30.734C29.799 30.734 30.5043 30.4427 31.731 29.86L32.283 29.584L33.065 31.194C32.789 31.4393 32.421 31.746 31.961 32.114C31.501 32.482 30.6423 32.988 29.385 33.632C28.1276 34.2453 26.9623 34.552 25.889 34.552C24.8156 34.552 23.9723 34.23 23.359 33.586C22.7456 32.9113 22.439 32.022 22.439 30.918C22.439 29.7833 22.8223 27.79 23.589 24.938C24.3556 22.0553 24.739 20.1847 24.739 19.326C24.739 18.038 24.3403 16.8267 23.543 15.692L23.129 15.14L23.175 14.542C24.8003 14.082 27.4376 13.852 31.087 13.852C31.4856 14.312 31.685 15.186 31.685 16.474ZM26.441 8.838C25.8276 8.22466 25.521 7.412 25.521 6.4C25.521 5.388 25.935 4.49867 26.763 3.732C27.6216 2.96533 28.603 2.582 29.707 2.582C30.811 2.582 31.6696 2.88867 32.283 3.502C32.8963 4.11533 33.203 4.928 33.203 5.94C33.203 6.92133 32.7583 7.79533 31.869 8.562C31.0103 9.32867 30.0443 9.712 28.971 9.712C27.8976 9.712 27.0543 9.42067 26.441 8.838ZM56.5002 31.194C53.8935 33.4327 51.5935 34.552 49.6002 34.552C47.6375 34.552 46.5028 33.5707 46.1962 31.608C45.2762 32.528 44.2488 33.2487 43.1142 33.77C41.9795 34.2913 40.9828 34.552 40.1242 34.552C38.6522 34.552 37.3948 33.908 36.3522 32.62C35.3095 31.332 34.7882 29.3387 34.7882 26.64C34.7882 22.592 35.6468 19.418 37.3642 17.118C39.0815 14.7873 41.0135 13.622 43.1602 13.622C45.3375 13.622 47.1622 14.1127 48.6342 15.094C49.5848 10.126 50.0602 6.216 50.0602 3.364L49.8302 1.432C52.1302 0.634666 54.3842 0.235999 56.5922 0.235999C56.8375 0.757333 56.9602 1.35533 56.9602 2.03C56.9602 4.26866 56.2855 8.82266 54.9362 15.692C53.5868 22.5307 52.9122 27.1767 52.9122 29.63C52.9122 30.366 53.0808 30.734 53.4182 30.734C53.6022 30.734 54.1848 30.4427 55.1662 29.86L55.6262 29.584L56.5002 31.194ZM45.4142 16.336C44.3408 16.336 43.4055 17.394 42.6082 19.51C41.8415 21.626 41.4582 23.7267 41.4582 25.812C41.4582 27.8667 41.5962 29.1853 41.8722 29.768C42.1788 30.3507 42.6235 30.642 43.2062 30.642C44.2182 30.642 45.2148 30.228 46.1962 29.4C46.2882 28.1733 46.9782 24.0947 48.2662 17.164C47.2235 16.612 46.2728 16.336 45.4142 16.336ZM71.494 14.956C71.5553 14.8947 71.724 14.496 72 13.76C73.4413 13.76 75.3733 14.1893 77.796 15.048C77.0293 17.5933 76.416 20.2613 75.956 23.052C75.496 25.812 75.266 27.79 75.266 28.986C75.266 30.1513 75.3887 30.734 75.634 30.734C75.818 30.734 76.4927 30.4427 77.658 29.86L78.21 29.584L79.038 31.194C78.762 31.4393 78.394 31.746 77.934 32.114C77.5047 32.482 76.6767 32.988 75.45 33.632C74.2233 34.2453 73.1193 34.552 72.138 34.552C70.2367 34.552 69.1327 33.6933 68.826 31.976C66.8633 33.6933 65.0847 34.552 63.49 34.552C61.926 34.552 60.592 33.9387 59.488 32.712C58.4147 31.4853 57.878 29.5533 57.878 26.916C57.878 22.8067 58.7213 19.5713 60.408 17.21C62.0947 14.818 64.134 13.622 66.526 13.622C68.2433 13.622 69.8993 14.0667 71.494 14.956ZM66.25 30.642C66.986 30.642 67.814 30.3507 68.734 29.768C68.9487 25.444 69.6693 21.166 70.896 16.934C69.976 16.5353 69.194 16.336 68.55 16.336C67.446 16.336 66.4953 17.4247 65.698 19.602C64.9313 21.7487 64.548 24.1253 64.548 26.732C64.548 29.3387 65.1153 30.642 66.25 30.642ZM80.8076 34.138H80.4856C80.4242 33.8927 80.3936 33.3407 80.3936 32.482C80.3936 31.5927 80.8076 29.2313 81.6356 25.398C82.4636 21.5647 82.8776 19.372 82.8776 18.82C82.8776 17.8693 82.4482 16.8267 81.5896 15.692L81.1756 15.14L81.2216 14.542C82.8776 14.082 85.5302 13.852 89.1796 13.852C89.5476 14.6493 89.7316 15.7687 89.7316 17.21C90.0689 16.658 90.7742 15.922 91.8476 15.002C92.9209 14.082 94.0249 13.622 95.1596 13.622C96.8156 13.622 97.6436 15.0633 97.6436 17.946C97.4902 18.13 97.2756 18.3753 96.9996 18.682C96.7542 18.958 96.2329 19.3567 95.4356 19.878C94.6689 20.3993 93.9176 20.7213 93.1816 20.844C93.1509 20.844 92.8902 20.43 92.3996 19.602C91.9089 18.774 91.5409 18.36 91.2956 18.36C90.5289 18.636 89.8542 19.096 89.2716 19.74C87.8609 26.088 87.1556 30.1973 87.1556 32.068C87.1556 32.7427 87.1709 33.218 87.2016 33.494C86.1282 33.9233 83.9969 34.138 80.8076 34.138ZM110.351 14.956C110.413 14.8947 110.581 14.496 110.857 13.76C112.299 13.76 114.231 14.1893 116.653 15.048C115.887 17.5933 115.273 20.2613 114.813 23.052C114.353 25.812 114.123 27.79 114.123 28.986C114.123 30.1513 114.246 30.734 114.491 30.734C114.675 30.734 115.35 30.4427 116.515 29.86L117.067 29.584L117.895 31.194C117.619 31.4393 117.251 31.746 116.791 32.114C116.362 32.482 115.534 32.988 114.307 33.632C113.081 34.2453 111.977 34.552 110.995 34.552C109.094 34.552 107.99 33.6933 107.683 31.976C105.721 33.6933 103.942 34.552 102.347 34.552C100.783 34.552 99.4494 33.9387 98.3454 32.712C97.2721 31.4853 96.7354 29.5533 96.7354 26.916C96.7354 22.8067 97.5788 19.5713 99.2654 17.21C100.952 14.818 102.991 13.622 105.383 13.622C107.101 13.622 108.757 14.0667 110.351 14.956ZM105.107 30.642C105.843 30.642 106.671 30.3507 107.591 29.768C107.806 25.444 108.527 21.166 109.753 16.934C108.833 16.5353 108.051 16.336 107.407 16.336C106.303 16.336 105.353 17.4247 104.555 19.602C103.789 21.7487 103.405 24.1253 103.405 26.732C103.405 29.3387 103.973 30.642 105.107 30.642ZM137.237 24.984C137.237 27.928 136.118 30.2587 133.879 31.976C131.64 33.6933 128.926 34.552 125.737 34.552C123.59 34.552 121.812 34.0153 120.401 32.942C119.021 31.838 118.254 30.9027 118.101 30.136C118.438 29.124 119.159 27.9893 120.263 26.732C121.367 25.4747 122.364 24.708 123.253 24.432C124.817 25.444 126.274 27.698 127.623 31.194C129.616 31.1327 130.613 30.044 130.613 27.928C130.613 26.7627 130.138 25.3367 129.187 23.65C128.267 21.9327 127.255 20.338 126.151 18.866C125.047 17.3633 124.02 15.692 123.069 13.852C122.149 11.9813 121.689 10.3253 121.689 8.884C121.689 6.55333 122.624 4.71333 124.495 3.364C126.396 2.01467 128.528 1.34 130.889 1.34C133.25 1.34 135.075 1.846 136.363 2.858C137.682 3.87 138.341 5.02 138.341 6.308C138.341 7.596 137.85 8.91467 136.869 10.264C135.888 11.6133 134.906 12.6867 133.925 13.484L132.453 14.68C132.821 15.1707 133.266 15.7993 133.787 16.566C134.308 17.3327 135.014 18.636 135.903 20.476C136.792 22.316 137.237 23.8187 137.237 24.984ZM133.695 9.896C134.124 9.49733 134.508 9.022 134.845 8.47C135.182 7.88733 135.351 7.28933 135.351 6.676C135.351 6.032 134.983 5.49533 134.247 5.066C133.511 4.63667 132.622 4.422 131.579 4.422C130.567 4.422 129.708 4.66733 129.003 5.158C128.328 5.618 127.991 6.18533 127.991 6.86C127.991 7.504 128.206 8.27067 128.635 9.16C129.095 10.0187 129.54 10.7393 129.969 11.322L130.659 12.196C130.966 12.0427 131.441 11.7207 132.085 11.23C132.76 10.7393 133.296 10.2947 133.695 9.896ZM153.746 14.956C153.807 14.8947 153.976 14.496 154.252 13.76C155.693 13.76 157.625 14.1893 160.048 15.048C159.281 17.5933 158.668 20.2613 158.208 23.052C157.748 25.812 157.518 27.79 157.518 28.986C157.518 30.1513 157.641 30.734 157.886 30.734C158.07 30.734 158.745 30.4427 159.91 29.86L160.462 29.584L161.29 31.194C161.014 31.4393 160.646 31.746 160.186 32.114C159.757 32.482 158.929 32.988 157.702 33.632C156.475 34.2453 155.371 34.552 154.39 34.552C152.489 34.552 151.385 33.6933 151.078 31.976C149.115 33.6933 147.337 34.552 145.742 34.552C144.178 34.552 142.844 33.9387 141.74 32.712C140.667 31.4853 140.13 29.5533 140.13 26.916C140.13 22.8067 140.973 19.5713 142.66 17.21C144.347 14.818 146.386 13.622 148.778 13.622C150.495 13.622 152.151 14.0667 153.746 14.956ZM148.502 30.642C149.238 30.642 150.066 30.3507 150.986 29.768C151.201 25.444 151.921 21.166 153.148 16.934C152.228 16.5353 151.446 16.336 150.802 16.336C149.698 16.336 148.747 17.4247 147.95 19.602C147.183 21.7487 146.8 24.1253 146.8 26.732C146.8 29.3387 147.367 30.642 148.502 30.642ZM165.682 34.552C164.639 34.552 163.765 34.1993 163.06 33.494C162.385 32.7887 162.048 31.8073 162.048 30.55C162.048 29.262 162.799 25.1987 164.302 18.36C165.835 11.4907 166.602 6.538 166.602 3.502L166.326 1.478C168.718 0.649999 170.956 0.235999 173.042 0.235999C173.348 0.665332 173.502 1.41666 173.502 2.49C173.502 4.94333 172.72 9.69667 171.156 16.75C169.622 23.7727 168.856 27.8667 168.856 29.032C168.856 30.1667 168.994 30.734 169.27 30.734L172.49 29.584L173.318 31.194C172.275 32.022 171.002 32.7887 169.5 33.494C168.028 34.1993 166.755 34.552 165.682 34.552ZM183.88 16.474C183.88 17.762 183.466 19.9853 182.638 23.144C181.81 26.272 181.396 28.3267 181.396 29.308C181.396 30.2587 181.534 30.734 181.81 30.734C181.994 30.734 182.7 30.4427 183.926 29.86L184.478 29.584L185.26 31.194C184.984 31.4393 184.616 31.746 184.156 32.114C183.696 32.482 182.838 32.988 181.58 33.632C180.323 34.2453 179.158 34.552 178.084 34.552C177.011 34.552 176.168 34.23 175.554 33.586C174.941 32.9113 174.634 32.022 174.634 30.918C174.634 29.7833 175.018 27.79 175.784 24.938C176.551 22.0553 176.934 20.1847 176.934 19.326C176.934 18.038 176.536 16.8267 175.738 15.692L175.324 15.14L175.37 14.542C176.996 14.082 179.633 13.852 183.282 13.852C183.681 14.312 183.88 15.186 183.88 16.474ZM178.636 8.838C178.023 8.22466 177.716 7.412 177.716 6.4C177.716 5.388 178.13 4.49867 178.958 3.732C179.817 2.96533 180.798 2.582 181.902 2.582C183.006 2.582 183.865 2.88867 184.478 3.502C185.092 4.11533 185.398 4.928 185.398 5.94C185.398 6.92133 184.954 7.79533 184.064 8.562C183.206 9.32867 182.24 9.712 181.166 9.712C180.093 9.712 179.25 9.42067 178.636 8.838ZM188.133 34.138H187.259C187.259 32.6967 187.689 29.9367 188.547 25.858C189.437 21.7793 189.881 19.464 189.881 18.912C189.881 17.9 189.452 16.8267 188.593 15.692L188.179 15.14L188.225 14.542C189.881 14.082 192.534 13.852 196.183 13.852C196.613 14.4347 196.827 15.3853 196.827 16.704C199.587 14.6493 201.78 13.622 203.405 13.622C205.46 13.622 206.671 14.68 207.039 16.796C207.867 16.1213 208.941 15.4313 210.259 14.726C211.609 13.99 212.805 13.622 213.847 13.622C214.921 13.622 215.81 13.9747 216.515 14.68C217.221 15.3547 217.573 16.3053 217.573 17.532C217.573 18.7587 217.236 20.7827 216.561 23.604C215.887 26.4253 215.549 28.3267 215.549 29.308C215.549 30.2587 215.687 30.734 215.963 30.734C216.147 30.734 216.776 30.4427 217.849 29.86L218.355 29.584L219.183 31.194C218.386 31.9913 217.297 32.758 215.917 33.494C214.568 34.1993 213.372 34.552 212.329 34.552C210.029 34.552 208.879 33.2487 208.879 30.642C208.879 29.6913 209.201 27.79 209.845 24.938C210.52 22.0553 210.857 20.1847 210.857 19.326C210.857 18.4367 210.597 17.992 210.075 17.992C209.186 17.992 208.174 18.3293 207.039 19.004C206.978 19.6173 206.549 21.7027 205.751 25.26C204.985 28.8173 204.601 31.5773 204.601 33.54C203.712 33.9387 201.627 34.138 198.345 34.138C198.284 33.8007 198.253 32.988 198.253 31.7C198.253 30.412 198.606 28.2193 199.311 25.122C200.047 22.0247 200.415 20.062 200.415 19.234C200.415 18.406 200.124 17.992 199.541 17.992C198.621 17.992 197.609 18.36 196.505 19.096C196.444 19.372 196.137 20.7213 195.585 23.144C194.481 27.9893 193.929 31.4393 193.929 33.494C192.856 33.9233 190.924 34.138 188.133 34.138ZM232.587 1.892C232.587 4.22267 231.805 8.792 230.241 15.6C232.081 14.2813 233.737 13.622 235.209 13.622C236.711 13.622 237.984 14.2507 239.027 15.508C240.1 16.7347 240.637 18.6207 240.637 21.166C240.637 25.4287 239.793 28.7253 238.107 31.056C236.451 33.3867 234.427 34.552 232.035 34.552C231.145 34.552 230.241 34.4447 229.321 34.23C228.431 34.0153 227.757 33.7853 227.297 33.54L226.607 33.218C224.644 33.8927 222.727 34.23 220.857 34.23C220.673 34.0767 220.581 33.3407 220.581 32.022C220.581 30.6727 221.439 26.2567 223.157 18.774C224.874 11.2607 225.733 6.124 225.733 3.364C225.733 2.87333 225.656 2.24467 225.503 1.478C227.895 0.649999 230.179 0.235999 232.357 0.235999C232.51 0.665332 232.587 1.21733 232.587 1.892ZM232.173 17.532C231.59 17.532 230.716 17.808 229.551 18.36C228.14 24.3093 227.373 28.572 227.251 31.148C228.171 31.5467 229.045 31.746 229.873 31.746C231.038 31.746 232.004 30.6727 232.771 28.526C233.568 26.3793 233.967 24.018 233.967 21.442C233.967 18.8353 233.369 17.532 232.173 17.532ZM256.482 14.956C256.544 14.8947 256.712 14.496 256.988 13.76C258.43 13.76 260.362 14.1893 262.784 15.048C262.018 17.5933 261.404 20.2613 260.944 23.052C260.484 25.812 260.254 27.79 260.254 28.986C260.254 30.1513 260.377 30.734 260.622 30.734C260.806 30.734 261.481 30.4427 262.646 29.86L263.198 29.584L264.026 31.194C263.75 31.4393 263.382 31.746 262.922 32.114C262.493 32.482 261.665 32.988 260.438 33.632C259.212 34.2453 258.108 34.552 257.126 34.552C255.225 34.552 254.121 33.6933 253.814 31.976C251.852 33.6933 250.073 34.552 248.478 34.552C246.914 34.552 245.58 33.9387 244.476 32.712C243.403 31.4853 242.866 29.5533 242.866 26.916C242.866 22.8067 243.71 19.5713 245.396 17.21C247.083 14.818 249.122 13.622 251.514 13.622C253.232 13.622 254.888 14.0667 256.482 14.956ZM251.238 30.642C251.974 30.642 252.802 30.3507 253.722 29.768C253.937 25.444 254.658 21.166 255.884 16.934C254.964 16.5353 254.182 16.336 253.538 16.336C252.434 16.336 251.484 17.4247 250.686 19.602C249.92 21.7487 249.536 24.1253 249.536 26.732C249.536 29.3387 250.104 30.642 251.238 30.642Z" fill="#FF3737"/>
</svg>
