<svg width="80" height="80" viewBox="0 0 80 80" fill="none" xmlns="http://www.w3.org/2000/svg">
<path d="M20 0C17.25 0 15 2.25 15 5V75C15 77.75 17.25 80 20 80H70C72.75 80 75 77.75 75 75V20L55 0H20Z" fill="#E2E5E7"/>
<path d="M60 20H75L55 0V15C55 17.75 57.25 20 60 20Z" fill="#B0B7BD"/>
<path d="M75 35L60 20H75V35Z" fill="#CAD1D8"/>
<path d="M65 65C65 66.375 63.875 67.5 62.5 67.5H7.5C6.125 67.5 5 66.375 5 65V40C5 38.625 6.125 37.5 7.5 37.5H62.5C63.875 37.5 65 38.625 65 40V65Z" fill="#F15642"/>
<path d="M15.8973 47.3675C15.8973 46.7075 16.4173 45.9875 17.2548 45.9875H21.8723C24.4723 45.9875 26.8123 47.7275 26.8123 51.0625C26.8123 54.2225 24.4723 55.9825 21.8723 55.9825H18.5348V58.6225C18.5348 59.5025 17.9748 60 17.2548 60C16.5948 60 15.8973 59.5025 15.8973 58.6225V47.3675ZM18.5348 48.505V53.485H21.8723C23.2123 53.485 24.2723 52.3025 24.2723 51.0625C24.2723 49.665 23.2123 48.505 21.8723 48.505H18.5348Z" fill="white"/>
<path d="M30.7274 59.9999C30.0674 59.9999 29.3474 59.6399 29.3474 58.7624V47.4074C29.3474 46.6899 30.0674 46.1674 30.7274 46.1674H35.3049C44.4399 46.1674 44.2399 59.9999 35.4849 59.9999H30.7274ZM31.9874 48.6074V57.5624H35.3049C40.7024 57.5624 40.9424 48.6074 35.3049 48.6074H31.9874Z" fill="white"/>
<path d="M47.4797 48.7674V51.9449H52.5772C53.2972 51.9449 54.0172 52.6649 54.0172 53.3624C54.0172 54.0224 53.2972 54.5625 52.5772 54.5625H47.4797V58.7599C47.4797 59.4599 46.9822 59.9975 46.2822 59.9975C45.4022 59.9975 44.8647 59.4599 44.8647 58.7599V47.4049C44.8647 46.6874 45.4047 46.1649 46.2822 46.1649H53.2997C54.1797 46.1649 54.6997 46.6874 54.6997 47.4049C54.6997 48.0449 54.1797 48.765 53.2997 48.765H47.4797V48.7674Z" fill="white"/>
<path d="M62.5 67.5H15V70H62.5C63.875 70 65 68.875 65 67.5V65C65 66.375 63.875 67.5 62.5 67.5Z" fill="#CAD1D8"/>
</svg>
